<svg xmlns="http://www.w3.org/2000/svg" viewBox="0 0 512 512" role="img" aria-labelledby="title desc"><title id="title">????????</title><desc id="desc">Original Mojibouken enemy artwork</desc><rect width="512" height="512" rx="96" fill="#f3e8ff"/><path d="M142 392 C104 358 91 276 112 203 C133 127 192 84 258 90 C330 98 382 152 392 226 C402 304 374 360 341 395 L302 366 L260 402 L224 365 L180 401 Z" fill="#a78bfa" stroke="#3d3352" stroke-width="12"/><circle cx="205" cy="255" r="22" fill="#202436"/><circle cx="307" cy="255" r="22" fill="#202436"/><circle cx="198" cy="248" r="7" fill="#fff"/><circle cx="300" cy="248" r="7" fill="#fff"/><path d="M218 326 C241 344 273 344 296 326" fill="none" stroke="#202436" stroke-width="12" stroke-linecap="round"/><circle cx="256" cy="186" r="54" fill="#7c3aed" opacity=".86"/><text x="256" y="207" text-anchor="middle" font-size="58" font-family="sans-serif" font-weight="800" fill="#fff">?</text><ellipse cx="256" cy="454" rx="132" ry="22" fill="#2c2440" opacity=".18"/></svg>