<svg xmlns="http://www.w3.org/2000/svg" viewBox="0 0 512 512" role="img" aria-labelledby="title desc"><title id="title">??????</title><desc id="desc">Original Mojibouken enemy artwork</desc><rect width="512" height="512" rx="96" fill="#dbeafe"/><path d="M130 376 L156 190 L212 118 L246 172 L306 118 L360 190 L382 376 Z" fill="#93c5fd" stroke="#30405c" stroke-width="12"/><path d="M150 260 C188 214 324 214 362 260 L338 392 C298 426 214 426 174 392 Z" fill="#2563eb" opacity=".35"/><circle cx="205" cy="255" r="22" fill="#202436"/><circle cx="307" cy="255" r="22" fill="#202436"/><circle cx="198" cy="248" r="7" fill="#fff"/><circle cx="300" cy="248" r="7" fill="#fff"/><path d="M218 326 C241 344 273 344 296 326" fill="none" stroke="#202436" stroke-width="12" stroke-linecap="round"/><circle cx="256" cy="186" r="54" fill="#2563eb" opacity=".86"/><text x="256" y="207" text-anchor="middle" font-size="58" font-family="sans-serif" font-weight="800" fill="#fff">?</text><ellipse cx="256" cy="454" rx="132" ry="22" fill="#2c2440" opacity=".18"/></svg>